<svg aria-hidden="true" style="position: absolute; width: 0; height: 0; overflow: hidden;" version="1.1" xmlns="http://www.w3.org/2000/svg" xmlns:xlink="http://www.w3.org/1999/xlink">
<defs>
<symbol id="icon-cross" viewBox="0 0 32 32">
<path d="M0 29.090l2.91 2.91 13.090-13.090 13.090 13.090 2.91-2.91-13.090-13.090 13.090-13.090-2.91-2.91-13.090 13.090-13.090-13.090-2.91 2.91 13.090 13.090z"></path>
</symbol>
<symbol id="icon-hamburger" viewBox="0 0 32 32">
<path d="M27.667 9.333c0 0.552-0.448 1-1 1h-21.333c-0.552 0-1-0.448-1-1s0.448-1 1-1h21.333c0.552 0 1 0.448 1 1z"></path>
<path d="M27.667 16c0 0.552-0.448 1-1 1h-21.333c-0.552 0-1-0.448-1-1s0.448-1 1-1h21.333c0.552 0 1 0.448 1 1z"></path>
<path d="M27.667 22.667c0 0.552-0.448 1-1 1h-21.333c-0.552 0-1-0.448-1-1s0.448-1 1-1h21.333c0.552 0 1 0.448 1 1z"></path>
</symbol>

<symbol id="icon-reviews" viewBox="0 0 32 32">
<path d="M2.049 12.651c-0.031 0.108-0.050 0.232-0.050 0.36 0 0.413 0.188 0.782 0.482 1.026l0.002 0.002 6.407 5.284-2.020 9.053c-0.020 0.087-0.032 0.188-0.032 0.291 0 0.736 0.597 1.333 1.333 1.333 0.292 0 0.563-0.094 0.783-0.254l-0.004 0.003 7.049-5.071 7.049 5.067c0.216 0.157 0.486 0.251 0.779 0.251 0.736 0 1.333-0.597 1.333-1.333 0-0.103-0.012-0.204-0.034-0.3l0.002 0.009-2.020-9.053 6.407-5.284c0.297-0.246 0.485-0.616 0.485-1.029 0-0.668-0.492-1.222-1.134-1.318l-0.007-0.001-7.756-1.132-3.904-7.817c-0.247-0.409-0.689-0.678-1.193-0.678s-0.947 0.269-1.19 0.672l-0.004 0.006-3.917 7.821-7.756 1.132c-0.526 0.079-0.946 0.456-1.088 0.951l-0.002 0.009zM11.971 13.097c0.44-0.066 0.805-0.339 0.996-0.715l0.004-0.008 3.029-6.060 3.029 6.060c0.195 0.384 0.56 0.657 0.993 0.722l0.007 0.001 5.467 0.8-4.715 3.889c-0.297 0.246-0.484 0.615-0.484 1.028 0 0.103 0.012 0.203 0.034 0.3l-0.002-0.009 1.435 6.435-4.985-3.587c-0.216-0.157-0.486-0.251-0.779-0.251s-0.563 0.094-0.783 0.254l0.004-0.003-4.985 3.587 1.435-6.435c0.020-0.087 0.032-0.188 0.032-0.291 0-0.413-0.187-0.782-0.482-1.026l-0.002-0.002-4.717-3.892z"></path>
</symbol>
<symbol id="icon-contact" viewBox="0 0 32 32">
<path d="M30 24c0 0.203-0.039 0.395-0.095 0.578l-8.905-9.578 9-7v16zM3.556 25.946l9.024-9.616 3.42 2.585 3.272-2.601 9.172 9.632c-0.143 0.033-24.745 0.033-24.888 0v0zM2 24v-16l9 7-8.905 9.578c-0.056-0.183-0.095-0.375-0.095-0.578v0zM29 6l-13 10-13-10h26zM28 4h-24c-2.209 0-4 1.791-4 4v16c0 2.209 1.791 4 4 4h24c2.209 0 4-1.791 4-4v-16c0-2.209-1.791-4-4-4v0z"></path>
</symbol>
<symbol id="icon-gallery" viewBox="0 0 32 32">
<path d="M24 10.667c0 1.473-1.194 2.667-2.667 2.667s-2.667-1.194-2.667-2.667c0-1.473 1.194-2.667 2.667-2.667s2.667 1.194 2.667 2.667z"></path>
<path d="M15.923 1.667h0.153c3.078 0 5.49-0 7.372 0.253 1.926 0.259 3.446 0.799 4.639 1.993s1.733 2.713 1.993 4.639c0.253 1.882 0.253 4.294 0.253 7.372v0.118c0 2.545 0 4.629-0.138 6.325-0.139 1.705-0.423 3.129-1.061 4.312-0.281 0.522-0.626 0.989-1.047 1.41-1.193 1.193-2.713 1.733-4.639 1.993-1.882 0.253-4.294 0.253-7.372 0.253h-0.153c-3.078 0-5.49 0-7.372-0.253-1.926-0.259-3.446-0.799-4.639-1.993-1.058-1.058-1.604-2.374-1.894-4.007-0.285-1.604-0.338-3.6-0.348-6.079-0.003-0.63-0.003-1.297-0.003-2.001v-0.078c0-3.078-0-5.49 0.253-7.372 0.259-1.926 0.799-3.446 1.993-4.639s2.713-1.734 4.639-1.993c1.882-0.253 4.294-0.253 7.372-0.253zM8.818 3.902c-1.705 0.229-2.732 0.665-3.492 1.425s-1.195 1.787-1.425 3.492c-0.233 1.733-0.235 4.011-0.235 7.182 0 0.705 0 1.368 0.003 1.993 0.011 2.499 0.067 4.328 0.317 5.737 0.246 1.381 0.663 2.267 1.34 2.943 0.76 0.76 1.787 1.195 3.492 1.425 1.733 0.233 4.011 0.235 7.182 0.235s5.449-0.002 7.182-0.235c1.705-0.229 2.732-0.665 3.492-1.425 0.28-0.28 0.509-0.589 0.7-0.943 0.442-0.821 0.697-1.92 0.828-3.527s0.132-3.609 0.132-6.204c0-3.171-0.002-5.449-0.235-7.182-0.229-1.705-0.665-2.732-1.425-3.492s-1.787-1.195-3.492-1.425c-1.733-0.233-4.011-0.235-7.182-0.235s-5.449 0.002-7.182 0.235z"></path>
<path d="M27.476 25.528l-3.774-3.396c-1.386-1.247-3.45-1.372-4.976-0.299l-0.398 0.279c-1.060 0.745-2.503 0.62-3.419-0.296l-5.72-5.72c-1.142-1.142-2.973-1.203-4.188-0.139l-1.335 1.168c0 0.297 0.001 0.587 0.002 0.869 0.011 2.499 0.067 4.328 0.317 5.737 0.246 1.381 0.663 2.267 1.339 2.943 0.76 0.76 1.787 1.195 3.492 1.425 1.733 0.233 4.011 0.235 7.182 0.235s5.449-0.002 7.182-0.235c1.705-0.229 2.732-0.665 3.492-1.425 0.28-0.28 0.509-0.589 0.7-0.943 0.035-0.065 0.069-0.133 0.102-0.202z"></path>
</symbol>
<symbol id="icon-certificates" viewBox="0 0 32 32">
<path d="M16 4l0.652-1.163c-0.405-0.227-0.899-0.227-1.305 0l0.652 1.163zM17.863 5.045l-0.652 1.163c0.194 0.109 0.413 0.168 0.636 0.17l0.017-1.333zM20 5.072l1.146-0.681c-0.237-0.399-0.665-0.647-1.13-0.652l-0.017 1.333zM21.091 6.909l-1.146 0.681c0.114 0.192 0.274 0.352 0.465 0.465l0.681-1.146zM22.928 8l1.333-0.017c-0.006-0.465-0.253-0.893-0.652-1.13l-0.681 1.146zM22.955 10.136l-1.333 0.017c0.003 0.223 0.061 0.441 0.17 0.636l1.163-0.652zM24 12l1.163 0.652c0.227-0.405 0.227-0.899 0-1.305l-1.163 0.652zM22.955 13.863l-1.163-0.652c-0.109 0.194-0.168 0.413-0.17 0.636l1.333 0.017zM22.928 16l0.681 1.146c0.399-0.237 0.647-0.665 0.652-1.13l-1.333-0.017zM21.091 17.091l-0.681-1.146c-0.192 0.114-0.352 0.274-0.465 0.465l1.146 0.681zM20 18.928l0.017 1.333c0.465-0.006 0.893-0.253 1.13-0.652l-1.146-0.681zM17.863 18.955l-0.017-1.333c-0.223 0.003-0.441 0.061-0.636 0.17l0.652 1.163zM16 20l-0.652 1.163c0.405 0.227 0.899 0.227 1.305 0l-0.652-1.163zM14.137 18.955l0.652-1.163c-0.194-0.109-0.413-0.168-0.636-0.17l-0.017 1.333zM12 18.928l-1.146 0.681c0.237 0.399 0.665 0.647 1.13 0.652l0.017-1.333zM10.909 17.091l1.146-0.681c-0.114-0.192-0.274-0.352-0.465-0.465l-0.681 1.146zM9.072 16l-1.333 0.017c0.006 0.465 0.253 0.893 0.652 1.13l0.681-1.146zM9.045 13.863l1.333-0.017c-0.003-0.223-0.061-0.441-0.17-0.636l-1.163 0.652zM8 12l-1.163-0.652c-0.227 0.405-0.227 0.899 0 1.305l1.163-0.652zM9.045 10.136l1.163 0.652c0.109-0.194 0.168-0.413 0.17-0.636l-1.333-0.017zM9.072 8l-0.681-1.146c-0.399 0.237-0.647 0.665-0.652 1.13l1.333 0.016zM10.909 6.909l0.681 1.146c0.192-0.114 0.352-0.274 0.465-0.465l-1.146-0.681zM12 5.072l-0.017-1.333c-0.465 0.006-0.893 0.253-1.13 0.652l1.146 0.681zM14.137 5.045l0.017 1.333c0.223-0.003 0.441-0.061 0.636-0.17l-0.652-1.163zM11.333 28h-1.333c0 0.475 0.253 0.915 0.664 1.153s0.918 0.24 1.331 0.004l-0.662-1.158zM16 25.333l0.661-1.158c-0.41-0.234-0.913-0.234-1.323 0l0.661 1.158zM20.667 28l-0.661 1.158c0.413 0.236 0.92 0.234 1.331-0.004s0.664-0.678 0.664-1.153h-1.333zM15.348 5.163l1.863 1.045 1.305-2.326-1.864-1.045-1.305 2.326zM17.847 6.379l2.137 0.026 0.033-2.666-2.137-0.026-0.033 2.666zM18.854 5.753l1.091 1.837 2.293-1.362-1.091-1.837-2.293 1.362zM20.41 8.055l1.837 1.091 1.362-2.293-1.837-1.091-1.362 2.293zM21.595 8.017l0.027 2.136 2.666-0.033-0.026-2.136-2.667 0.033zM21.792 10.789l1.045 1.864 2.326-1.305-1.045-1.864-2.326 1.305zM22.837 11.348l-1.045 1.864 2.326 1.305 1.045-1.864-2.326-1.305zM21.621 13.847l-0.027 2.137 2.667 0.033 0.026-2.137-2.666-0.033zM19.983 17.595l-2.137 0.027 0.033 2.666 2.137-0.026-0.033-2.667zM14.153 17.621l-2.137-0.027-0.033 2.667 2.137 0.026 0.033-2.666zM10.405 15.983l-0.026-2.137-2.666 0.033 0.026 2.137 2.666-0.033zM10.208 13.211l-1.045-1.864-2.326 1.305 1.045 1.864 2.326-1.305zM9.163 12.652l1.045-1.864-2.326-1.305-1.045 1.864 2.326 1.305zM10.379 10.153l0.026-2.136-2.666-0.033-0.026 2.137 2.666 0.033zM9.753 9.146l1.837-1.091-1.362-2.293-1.837 1.091 1.362 2.293zM12.055 7.59l1.091-1.837-2.293-1.362-1.091 1.837 2.293 1.362zM12.017 6.405l2.137-0.026-0.033-2.666-2.136 0.026 0.033 2.666zM14.789 6.208l1.863-1.045-1.305-2.326-1.864 1.045 1.305 2.326zM22.247 14.854l-1.837 1.091 1.362 2.293 1.837-1.091-1.362-2.293zM11.59 15.945l-1.837-1.091-1.362 2.293 1.837 1.091 1.362-2.293zM17.211 17.792l-1.863 1.045 1.305 2.326 1.864-1.045-1.305-2.326zM16.652 18.837l-1.863-1.045-1.305 2.326 1.864 1.045 1.305-2.326zM11.995 29.158l4.667-2.667-1.323-2.315-4.667 2.667 1.323 2.315zM15.339 26.491l4.667 2.667 1.323-2.315-4.667-2.667-1.323 2.315zM22 28v-10.194h-2.667v10.194h2.667zM19.945 16.41l-0.425 0.715 2.293 1.362 0.424-0.715-2.293-1.362zM19.52 17.125l-0.667 1.122 2.293 1.362 0.667-1.122-2.293-1.362zM10 17.806v10.194h2.667v-10.194h-2.667zM13.146 18.247l-0.667-1.122-2.293 1.362 0.667 1.122 2.293-1.362zM12.48 17.125l-0.425-0.715-2.293 1.362 0.425 0.715 2.293-1.362zM17.333 12c0 0.736-0.597 1.333-1.333 1.333v2.667c2.209 0 4-1.791 4-4h-2.667zM16 13.333c-0.736 0-1.333-0.597-1.333-1.333h-2.667c0 2.209 1.791 4 4 4v-2.667zM14.667 12c0-0.736 0.597-1.333 1.333-1.333v-2.667c-2.209 0-4 1.791-4 4h2.667zM16 10.667c0.736 0 1.333 0.597 1.333 1.333h2.667c0-2.209-1.791-4-4-4v2.667z"></path>
</symbol>
<symbol id="icon-about" viewBox="0 0 32 32">
<path d="M16 2.667c-7.364 0-13.333 5.969-13.333 13.333s5.97 13.333 13.333 13.333c7.364 0 13.333-5.97 13.333-13.333s-5.969-13.333-13.333-13.333zM16 26.667c-5.882 0-10.667-4.785-10.667-10.667s4.785-10.667 10.667-10.667c5.882 0 10.667 4.785 10.667 10.667s-4.785 10.667-10.667 10.667zM17.67 10.667c0 0.967-0.704 1.667-1.656 1.667-0.991 0-1.677-0.7-1.677-1.685 0-0.947 0.705-1.648 1.677-1.648 0.952 0 1.656 0.701 1.656 1.667zM14.67 14.667h2.667v8h-2.667v-8z"></path>
</symbol>
</defs>
</svg>
