<svg aria-hidden="true" style="position: absolute; width: 0; height: 0; overflow: hidden;" version="1.1" xmlns="http://www.w3.org/2000/svg" xmlns:xlink="http://www.w3.org/1999/xlink">
<defs>
<symbol id="icon-cross" viewBox="0 0 32 32">
<path d="M0 29.090l2.91 2.91 13.090-13.090 13.090 13.090 2.91-2.91-13.090-13.090 13.090-13.090-2.91-2.91-13.090 13.090-13.090-13.090-2.91 2.91 13.090 13.090z"></path>
</symbol>
<symbol id="icon-hamburger" viewBox="0 0 32 32">
<path d="M27.667 9.333c0 0.552-0.448 1-1 1h-21.333c-0.552 0-1-0.448-1-1s0.448-1 1-1h21.333c0.552 0 1 0.448 1 1z"></path>
<path d="M27.667 16c0 0.552-0.448 1-1 1h-21.333c-0.552 0-1-0.448-1-1s0.448-1 1-1h21.333c0.552 0 1 0.448 1 1z"></path>
<path d="M27.667 22.667c0 0.552-0.448 1-1 1h-21.333c-0.552 0-1-0.448-1-1s0.448-1 1-1h21.333c0.552 0 1 0.448 1 1z"></path>
</symbol>
</defs>
</svg>
